<svg width="16" height="16" viewBox="0 0 16 16" fill="none" xmlns="http://www.w3.org/2000/svg">
<g clip-path="url(#clip0_56_7597)">
<path fill-rule="evenodd" clip-rule="evenodd" d="M15.3334 4.9334C15.3334 5.1334 15.3334 5.20007 15.3334 5.20007V8.40006C15.3334 9.06673 14.8667 9.66673 14.2001 9.86673L6.20008 11.5334C5.40008 11.6667 4.60008 11.2001 4.46675 10.4001L2.80008 2.20006H1.40008C1.00008 2.20006 0.666748 1.86673 0.666748 1.46673C0.666748 1.06673 1.00008 0.733398 1.40008 0.733398H3.40008C3.73341 0.733398 4.06675 1.00007 4.13341 1.3334L4.60008 3.66673L4.93341 5.1334L5.80008 9.26673C5.86675 9.66673 6.26675 9.9334 6.66675 9.86673L13.3334 8.46673C13.6667 8.40006 13.9334 8.06673 13.9334 7.7334V5.86673C13.9334 5.86673 13.9334 5.1334 13.9334 4.9334C13.9334 4.5334 14.2001 4.20006 14.6667 4.20006C15.0667 4.20006 15.3334 4.60006 15.3334 4.9334Z" fill="#333333"/>
<path d="M5.33333 15.4001C6.06667 15.4001 6.66667 14.8001 6.66667 14.0667C6.66667 13.3334 6.06667 12.7334 5.33333 12.7334C4.6 12.7334 4 13.3334 4 14.0667C4 14.8001 4.6 15.4001 5.33333 15.4001Z" fill="#333333"/>
<path d="M12.0001 15.4001C12.7334 15.4001 13.3334 14.8001 13.3334 14.0667C13.3334 13.3334 12.7334 12.7334 12.0001 12.7334C11.2667 12.7334 10.6667 13.3334 10.6667 14.0667C10.6667 14.8001 11.2667 15.4001 12.0001 15.4001Z" fill="#333333"/>
<path fill-rule="evenodd" clip-rule="evenodd" d="M14.0466 0.799546C14.102 0.847004 14.1475 0.90491 14.1805 0.969952C14.2134 1.035 14.2333 1.1059 14.2389 1.17862C14.2444 1.25133 14.2356 1.32443 14.2129 1.39374C14.1902 1.46304 14.1541 1.5272 14.1066 1.58253L9.66622 6.76295C9.61643 6.82103 9.55518 6.86819 9.4863 6.90148C9.41743 6.93476 9.34242 6.95345 9.26597 6.95637C9.18953 6.95929 9.11331 6.94637 9.0421 6.91844C8.97089 6.8905 8.90622 6.84815 8.85215 6.79403L6.63197 4.57385L6.24048 4.18162L7.02494 3.39716L7.41717 3.78939L9.21404 5.58551L13.2644 0.860231C13.3602 0.748619 13.4964 0.679612 13.6431 0.668372C13.7898 0.657132 13.9349 0.704578 14.0466 0.800286V0.799546Z" fill="#16C67A"/>
</g>
<defs>
<clipPath id="clip0_56_7597">
<rect width="16" height="16" fill="white"/>
</clipPath>
</defs>
</svg>
