<svg width="22" height="19" viewBox="0 0 22 19" fill="none" xmlns="http://www.w3.org/2000/svg">
<path fill-rule="evenodd" clip-rule="evenodd" d="M12.6807 14.1366C12.6807 16.4569 14.5617 18.338 16.8821 18.338C19.2024 18.338 21.0834 16.4569 21.0834 14.1366H19.4029C19.4029 15.5289 18.2743 16.6574 16.8821 16.6574C15.4898 16.6574 14.3612 15.5289 14.3612 14.1366H12.6807Z" fill="#FBC100"/>
<path fill-rule="evenodd" clip-rule="evenodd" d="M12.6807 14.1366H21.0834L17.6336 7.23696C17.324 6.61763 16.4402 6.61763 16.1305 7.23695L12.6807 14.1366ZM14.3612 14.1366H19.4029L16.8821 9.09493L14.3612 14.1366Z" fill="#FBC100"/>
<path fill-rule="evenodd" clip-rule="evenodd" d="M0.916748 11.6158C0.916748 13.9361 2.79778 15.8172 5.11814 15.8172C7.4385 15.8172 9.31953 13.9361 9.31953 11.6158H7.63897C7.63897 13.008 6.51035 14.1366 5.11814 14.1366C3.72592 14.1366 2.5973 13.008 2.5973 11.6158H0.916748Z" fill="#FBC100"/>
<path fill-rule="evenodd" clip-rule="evenodd" d="M0.916748 11.6157H9.31953L5.86971 4.71608C5.56004 4.09676 4.67623 4.09676 4.36657 4.71607L0.916748 11.6157ZM2.5973 11.6157H7.63897L5.11814 6.57405L2.5973 11.6157Z" fill="#FBC100"/>
<path d="M8.4793 10.7755H1.75708V12.456H8.4793V10.7755Z" fill="#FBC100"/>
<path d="M20.2432 13.2963H13.521V14.9768H20.2432V13.2963Z" fill="#FBC100"/>
<path d="M18.2776 3.78847L5.82184 0.857704C5.40939 0.760652 4.98431 0.959756 4.79481 1.33874C4.53093 1.8665 4.82872 2.5023 5.40309 2.63744L17.8588 5.5682C18.2713 5.66525 18.6964 5.46615 18.8859 5.08717C19.1498 4.55941 18.852 3.92361 18.2776 3.78847Z" fill="#FBC100"/>
</svg>
