<svg width="18" height="18" viewBox="0 0 18 18" fill="none" xmlns="http://www.w3.org/2000/svg">
<path fill-rule="evenodd" clip-rule="evenodd" d="M10.375 12.3845C10.375 14.283 11.914 15.822 13.8125 15.822C15.711 15.822 17.25 14.283 17.25 12.3845H15.875C15.875 13.5236 14.9516 14.447 13.8125 14.447C12.6734 14.447 11.75 13.5236 11.75 12.3845H10.375Z" fill="#767676"/>
<path fill-rule="evenodd" clip-rule="evenodd" d="M10.375 12.3846H17.25L14.4274 6.73942C14.1741 6.2327 13.4509 6.2327 13.1976 6.73941L10.375 12.3846ZM11.75 12.3846H15.875L13.8125 8.25958L11.75 12.3846Z" fill="#767676"/>
<path fill-rule="evenodd" clip-rule="evenodd" d="M0.75 10.322C0.75 12.2205 2.28902 13.7595 4.1875 13.7595C6.08598 13.7595 7.625 12.2205 7.625 10.322H6.25C6.25 11.4611 5.32658 12.3845 4.1875 12.3845C3.04842 12.3845 2.125 11.4611 2.125 10.322H0.75Z" fill="#767676"/>
<path fill-rule="evenodd" clip-rule="evenodd" d="M0.75 10.3221H7.625L4.80242 4.67692C4.54906 4.1702 3.82594 4.1702 3.57258 4.67691L0.75 10.3221ZM2.125 10.3221H6.25L4.1875 6.19708L2.125 10.3221Z" fill="#767676"/>
<path d="M6.9375 9.63452H1.4375V11.0095H6.9375V9.63452Z" fill="#767676"/>
<path d="M16.5625 11.697H11.0625V13.072H16.5625V11.697Z" fill="#767676"/>
<path d="M14.9546 3.91785L4.76346 1.51996C4.426 1.44055 4.0782 1.60345 3.92316 1.91353C3.70725 2.34533 3.9509 2.86553 4.42084 2.9761L14.6119 5.374C14.9494 5.45341 15.2972 5.2905 15.4522 4.98043C15.6681 4.54862 15.4245 4.02842 14.9546 3.91785Z" fill="#767676"/>
</svg>
