<svg width="48" height="48" viewBox="0 0 48 48" fill="none" xmlns="http://www.w3.org/2000/svg">
  <path d="M41.8635 10.1655C41.8674 9.97088 41.7965 9.7822 41.6653 9.63843C41.534 9.49466 41.3526 9.40679 41.1585 9.39298C38.2923 9.22443 35.4675 8.62782 32.778 7.62298C29.9209 6.55661 27.2494 5.04714 24.8617 3.14998C24.7096 3.05214 24.5326 3.00012 24.3517 3.00012C24.1709 3.00012 23.9938 3.05214 23.8417 3.14998C21.4542 5.04654 18.783 6.5555 15.9262 7.62148C13.2367 8.62632 10.4119 9.22293 7.54572 9.39148C7.42505 9.39883 7.30801 9.43554 7.20475 9.49841C7.1015 9.56128 7.01515 9.64841 6.95322 9.75223C6.15147 26.0632 6.93147 38.6977 24.3525 45C41.826 38.6152 42.2985 26.5065 41.8635 10.1655Z" fill="url(#paint0_linear_421_5315)"/>
  <path d="M31.3422 18.8577C30.8657 18.3806 30.092 18.3809 29.6149 18.8577L21.8407 26.6322L18.3855 23.1769C17.9083 22.6998 17.135 22.6998 16.6578 23.1769C16.1807 23.654 16.1807 24.4274 16.6578 24.9045L20.9767 29.2234C21.2151 29.4618 21.5277 29.5813 21.8404 29.5813C22.153 29.5813 22.4659 29.4621 22.7043 29.2234L31.3422 20.5853C31.8193 20.1085 31.8193 19.3348 31.3422 18.8577Z" fill="white"/>
  <defs>
    <linearGradient id="paint0_linear_421_5315" x1="2.13696e-06" y1="-7.71417" x2="37.7143" y2="44.5715" gradientUnits="userSpaceOnUse">
      <stop stop-color="#5C636B" stop-opacity="0.8"/>
      <stop offset="1" stop-color="#B4C1D1"/>
    </linearGradient>
  </defs>
</svg>